<svg xmlns="http://www.w3.org/2000/svg" width="174" height="45" viewBox="0 0 174 45" fill="none"><path d="M51.7373 14.161H55.947V31.2188H51.7373V14.161ZM57.6168 24.7782C57.6168 20.5594 60.1988 18.0422 64.1839 18.0422C68.1691 18.0422 70.751 20.5594 70.751 24.7782C70.751 28.9969 68.2252 31.5282 64.1839 31.5282C60.1426 31.5282 57.6168 29.0672 57.6168 24.7782ZM66.5273 24.7782C66.5273 22.4579 65.6152 21.0938 64.1839 21.0938C62.7526 21.0938 61.8546 22.5001 61.8546 24.7782C61.8546 27.0563 62.7386 28.4344 64.1839 28.4344C65.6292 28.4344 66.5273 27.1407 66.5273 24.7922V24.7782ZM72.3367 32.0485H76.3779C76.5703 32.4767 76.8955 32.8312 77.3051 33.0593C77.7147 33.2873 78.1868 33.3767 78.6512 33.3141C80.2509 33.3141 81.0928 32.4422 81.0928 31.1766V28.8141H81.0086C80.6732 29.5382 80.1289 30.1449 79.4461 30.556C78.7633 30.9671 77.9731 31.1637 77.1778 31.1204C74.1047 31.1204 72.07 28.7719 72.07 24.736C72.07 20.7001 74.0065 18.1547 77.2339 18.1547C78.0542 18.1225 78.8647 18.3423 79.557 18.7846C80.2492 19.227 80.79 19.8708 81.1068 20.6297V18.2813H85.3165V31.0782C85.3165 34.1579 82.6083 36.0704 78.6091 36.0704C74.8905 36.0704 72.5752 34.3969 72.3367 32.0626V32.0485ZM81.1068 24.7641C81.1068 22.711 80.1667 21.4172 78.6792 21.4172C77.1918 21.4172 76.2797 22.6969 76.2797 24.7641C76.2797 26.8313 77.1778 27.9985 78.6792 27.9985C80.1807 27.9985 81.1068 26.8594 81.1068 24.7782V24.7641ZM86.9021 24.7641C86.9021 20.5454 89.4841 18.0282 93.4692 18.0282C97.4544 18.0282 100.05 20.5454 100.05 24.7641C100.05 28.9829 97.5246 31.5141 93.4692 31.5141C89.4139 31.5141 86.9021 29.0672 86.9021 24.7782V24.7641ZM95.8126 24.7641C95.8126 22.4438 94.9005 21.0797 93.4692 21.0797C92.0379 21.0797 91.21 22.5001 91.21 24.7922C91.21 27.0844 92.0941 28.4485 93.5254 28.4485C94.9567 28.4485 95.8126 27.1407 95.8126 24.7922V24.7641ZM101.65 15.2157C101.639 14.7897 101.754 14.3701 101.982 14.01C102.209 13.6498 102.538 13.3654 102.926 13.1928C103.315 13.0202 103.746 12.9671 104.165 13.0403C104.584 13.1135 104.972 13.3097 105.279 13.604C105.587 13.8983 105.8 14.2774 105.892 14.6934C105.984 15.1094 105.951 15.5433 105.797 15.9405C105.643 16.3374 105.374 16.6797 105.026 16.9237C104.677 17.1677 104.264 17.3026 103.839 17.311C103.557 17.3304 103.275 17.2912 103.009 17.1958C102.743 17.1005 102.499 16.9511 102.294 16.7569C102.088 16.5629 101.925 16.3282 101.814 16.0677C101.703 15.8074 101.647 15.5269 101.65 15.2438V15.2157ZM101.65 18.3094H105.86V31.2188H101.65V18.3094ZM121.141 24.7641C121.141 28.9829 119.275 31.3876 116.075 31.3876C115.255 31.4403 114.438 31.2393 113.735 30.8118C113.033 30.3842 112.478 29.7507 112.146 28.9969H112.062V35.3532H107.852V18.2813H112.062V20.5876H112.146C112.462 19.8213 113.007 19.1713 113.705 18.726C114.403 18.2806 115.22 18.0615 116.047 18.0985C119.275 18.1547 121.197 20.5735 121.197 24.7922L121.141 24.7641ZM116.931 24.7641C116.931 22.711 115.991 21.4032 114.518 21.4032C113.044 21.4032 112.104 22.7251 112.09 24.7641C112.076 26.8032 113.044 28.111 114.518 28.111C115.991 28.111 116.931 26.8313 116.931 24.7922V24.7641ZM128.367 18.0141C131.861 18.0141 133.98 19.6735 134.079 22.3313H130.248C130.248 21.4172 129.49 20.8407 128.325 20.8407C127.161 20.8407 126.641 21.2907 126.641 21.9516C126.641 22.6126 127.105 22.8235 128.045 23.0204L130.739 23.5688C133.307 24.1172 134.401 25.1579 134.401 27.1126C134.401 29.7844 131.974 31.5001 128.396 31.5001C124.817 31.5001 122.474 29.7844 122.291 27.1547H126.347C126.473 28.111 127.231 28.6735 128.466 28.6735C129.701 28.6735 130.262 28.2657 130.262 27.5907C130.262 26.9157 129.869 26.7751 128.859 26.5641L126.431 26.0438C123.919 25.5235 122.6 24.1876 122.6 22.2188C122.628 19.6876 124.887 18.0422 128.367 18.0422V18.0141ZM148.448 31.1907H144.392V28.786H144.308C144.085 29.5933 143.594 30.3 142.915 30.7886C142.236 31.2772 141.41 31.5183 140.576 31.4719C139.936 31.5084 139.296 31.4068 138.699 31.1741C138.102 30.9414 137.562 30.583 137.115 30.1231C136.668 29.6632 136.324 29.1124 136.108 28.5081C135.892 27.9039 135.808 27.2601 135.861 26.6204V18.2813H140.07V25.6501C140.07 27.1829 140.856 27.9985 142.161 27.9985C142.467 27.9991 142.77 27.9342 143.049 27.8081C143.327 27.6819 143.577 27.4974 143.779 27.2671C143.98 27.0366 144.131 26.7656 144.22 26.4723C144.308 26.1788 144.335 25.8697 144.294 25.5657V18.2813H148.504L148.448 31.1907ZM150.482 18.2813H154.552V20.7704H154.636C154.859 19.9737 155.34 19.2737 156.003 18.7801C156.665 18.2865 157.473 18.0269 158.298 18.0422C159.139 17.9749 159.972 18.2267 160.636 18.7479C161.298 19.2691 161.742 20.0211 161.876 20.8547H161.961C162.215 20.0123 162.742 19.2788 163.459 18.7696C164.175 18.2604 165.041 18.0044 165.918 18.0422C166.49 18.023 167.06 18.1247 167.59 18.3407C168.122 18.5565 168.601 18.8821 168.998 19.2958C169.395 19.7096 169.701 20.2025 169.896 20.7424C170.09 21.2822 170.17 21.8573 170.127 22.4297V31.2188H165.918V23.5547C165.918 22.1485 165.286 21.5016 164.108 21.5016C163.845 21.4994 163.584 21.5537 163.344 21.6608C163.104 21.768 162.89 21.9255 162.716 22.1228C162.542 22.3201 162.411 22.5524 162.334 22.8042C162.257 23.0562 162.236 23.3217 162.269 23.5829V31.2188H158.27V23.4985C158.27 22.2047 157.639 21.5016 156.488 21.5016C156.223 21.5018 155.959 21.5583 155.718 21.6676C155.475 21.777 155.257 21.9366 155.082 22.1358C154.905 22.3351 154.773 22.5697 154.693 22.8241C154.615 23.0783 154.59 23.3465 154.622 23.611V31.2188H150.412L150.482 18.2813Z" fill="black"></path><path d="M39.9641 14.9344C39.25 13.298 38.305 11.773 37.1577 10.4063C35.4619 8.32548 33.3455 6.62821 30.948 5.42616C28.5504 4.22412 25.926 3.54455 23.2475 3.43218C20.569 3.31981 17.8971 3.77717 15.4077 4.77421C12.9183 5.77122 10.6678 7.28529 8.80439 9.21675C6.94093 11.1482 5.50676 13.4532 4.59628 15.9802C3.6858 18.5071 3.31963 21.1987 3.52189 23.8776C3.72416 26.5566 4.49025 29.1623 5.76977 31.5231C7.04929 33.884 8.81321 35.9466 10.9454 37.575C12.3136 38.6408 13.8254 39.5072 15.4358 40.1484C17.6935 41.0757 20.11 41.5533 22.5501 41.5547C27.5868 41.5436 32.4137 39.5315 35.9727 35.9596C39.5315 32.3878 41.5321 27.5476 41.5358 22.5C41.5394 19.8963 41.0043 17.3202 39.9641 14.9344ZM22.5361 7.29842C24.7274 7.2982 26.8921 7.77815 28.8787 8.70467C28.3943 8.91445 27.8849 9.06096 27.3632 9.14063C25.6465 9.38966 24.0562 10.1884 22.8296 11.4176C21.6031 12.6468 20.806 14.2405 20.5575 15.9609C20.4485 16.9258 20.0105 17.8234 19.3178 18.5023C18.625 19.1813 17.7198 19.5998 16.7548 19.6875C15.0381 19.9365 13.4478 20.7353 12.2212 21.9645C10.9947 23.1937 10.1976 24.7874 9.94915 26.5078C9.86501 27.4253 9.47443 28.2874 8.8406 28.9547C7.747 26.639 7.25573 24.0836 7.4125 21.5265C7.56927 18.9693 8.36898 16.4935 9.73722 14.3293C11.1055 12.1652 12.9978 10.3831 15.238 9.14884C17.4783 7.91461 19.9937 7.2684 22.5501 7.2703L22.5361 7.29842ZM10.9314 32.3438C11.0998 32.1891 11.2682 32.0484 11.4366 31.8797C12.685 30.6668 13.4863 29.0656 13.7098 27.3375C13.8004 26.3661 14.2332 25.4588 14.9306 24.7781C15.6018 24.0781 16.505 23.6479 17.4704 23.5688C19.1871 23.3197 20.7774 22.521 22.004 21.2918C23.2305 20.0625 24.0276 18.4688 24.2761 16.7484C24.3368 15.7324 24.7718 14.7752 25.4969 14.0625C26.1846 13.376 27.0964 12.9615 28.0648 12.8953C29.6419 12.6779 31.1127 11.9752 32.2745 10.8844C33.5973 11.9842 34.7179 13.3072 35.5861 14.7938C35.5328 14.8659 35.4716 14.932 35.4037 14.9906C34.7339 15.6968 33.8318 16.1364 32.8638 16.2281C31.1453 16.4728 29.5526 17.2702 28.3252 18.5001C27.098 19.7301 26.3023 21.3262 26.0582 23.0484C25.9592 24.0165 25.5294 24.9206 24.8416 25.6074C24.1536 26.2943 23.2499 26.7217 22.2835 26.8172C20.5617 27.0643 18.9656 27.8615 17.7318 29.0901C16.4983 30.3189 15.693 31.9136 15.4358 33.6375C15.3603 34.3247 15.1247 34.9847 14.7482 35.5641C13.3085 34.7074 12.019 33.6195 10.9314 32.3438ZM22.5361 37.7719C21.1122 37.7734 19.6951 37.5746 18.3264 37.1813C18.7947 36.3066 19.099 35.3533 19.2245 34.3688C19.3228 33.4028 19.7507 32.5004 20.4357 31.8139C21.1208 31.1273 22.0212 30.6986 22.9851 30.6C24.7043 30.3538 26.2978 29.5563 27.5272 28.3268C28.7564 27.0975 29.5556 25.5021 29.8048 23.7797C29.9031 22.8137 30.331 21.9113 31.016 21.2248C31.7011 20.5383 32.6016 20.1095 33.5654 20.0109C34.8592 19.8423 36.0924 19.3596 37.1577 18.6047C37.7493 20.8517 37.8193 23.2047 37.3626 25.4831C36.9058 27.7615 35.9342 29.9049 34.5226 31.7486C33.1109 33.5922 31.2967 35.0875 29.2188 36.1194C27.141 37.1513 24.855 37.6926 22.5361 37.7016V37.7719Z" fill="black"></path></svg>