<svg xmlns="http://www.w3.org/2000/svg" width="158" height="40" viewBox="0 0 158 40" fill="none"><path d="M18.217 7.82373V2.82373H2.41699V37.1767H18.217V32.1767C14.9803 32.1767 11.8762 30.8937 9.58765 28.6102C7.299 26.3267 6.01326 23.2296 6.01326 20.0002C6.01326 16.7708 7.299 13.6736 9.58765 11.3901C11.8762 9.10661 14.9803 7.82373 18.217 7.82373Z" fill="black"></path><path d="M18.2168 7.82373V32.1767C21.4534 32.1767 24.5576 30.8937 26.8462 28.6102C29.1348 26.3267 30.4205 23.2296 30.4205 20.0002C30.4205 16.7708 29.1348 13.6736 26.8462 11.3901C24.5576 9.10661 21.4534 7.82373 18.2168 7.82373Z" fill="black"></path><path d="M39.2881 10.8823H42.8254V27.8823H39.2881V10.8823Z" fill="black"></path><path d="M44.8062 22.0587C44.8062 20.8356 45.1702 19.6401 45.852 18.6236C46.5337 17.6071 47.5026 16.8155 48.6358 16.349C49.7691 15.8827 51.0155 15.7624 52.2172 16.0036C53.419 16.2448 54.5219 16.8365 55.3862 17.7038C56.2505 18.5713 56.8373 19.675 57.0722 20.8755C57.307 22.076 57.1794 23.3189 56.7054 24.4469C56.2314 25.5748 55.4325 26.537 54.4099 27.2114C53.3873 27.8858 52.1869 28.2421 50.9611 28.2351C50.1482 28.2415 49.342 28.0858 48.5901 27.7771C47.8382 27.4685 47.1555 27.0133 46.5822 26.4381C46.0089 25.8628 45.5566 25.179 45.2516 24.427C44.9467 23.675 44.7953 22.8698 44.8062 22.0587ZM53.6731 22.0587C53.6592 21.5314 53.4897 21.0198 53.186 20.5882C52.8823 20.1564 52.4578 19.8236 51.9654 19.6314C51.4731 19.4391 50.935 19.396 50.4183 19.5074C49.9015 19.6187 49.4291 19.8795 49.0602 20.2574C48.6913 20.6351 48.4421 21.113 48.344 21.6314C48.2459 22.1497 48.3031 22.6854 48.5085 23.1714C48.7139 23.6574 49.0583 24.0723 49.4988 24.364C49.9392 24.6557 50.456 24.8114 50.9847 24.8116C51.3447 24.8187 51.7022 24.7515 52.035 24.6143C52.3677 24.4773 52.6685 24.2731 52.9186 24.0148C53.1687 23.7564 53.3626 23.4493 53.4884 23.1128C53.6142 22.7762 53.6691 22.4174 53.6495 22.0587H53.6731Z" fill="black"></path><path d="M71.1121 16.2351V27.3057C71.1121 31.2116 68.0464 32.8704 64.9454 32.8704C63.8515 32.96 62.7544 32.7431 61.7775 32.2443C60.8005 31.7455 59.9824 30.9844 59.4154 30.0469L62.3985 28.3293C62.6402 28.8156 63.0248 29.2168 63.5009 29.4795C63.977 29.7422 64.522 29.854 65.0633 29.7998C65.4082 29.8422 65.7582 29.8081 66.0882 29.6998C66.4183 29.5915 66.7203 29.4118 66.9726 29.1735C67.2251 28.9351 67.4215 28.6442 67.548 28.3213C67.6746 27.9984 67.728 27.6516 67.7045 27.3057V26.2351C67.2929 26.7331 66.7705 27.1284 66.1791 27.3898C65.5875 27.6513 64.9432 27.7715 64.2969 27.741C62.7333 27.741 61.2338 27.1213 60.1282 26.0181C59.0225 24.915 58.4014 23.4188 58.4014 21.8587C58.4014 20.2985 59.0225 18.8024 60.1282 17.6993C61.2338 16.5961 62.7333 15.9763 64.2969 15.9763C64.9432 15.9458 65.5875 16.0661 66.1791 16.3275C66.7705 16.5889 67.2929 16.9842 67.7045 17.4822V16.3057L71.1121 16.2351ZM67.7045 21.8234C67.728 21.2605 67.5822 20.7035 67.2859 20.224C66.9896 19.7444 66.5564 19.3643 66.0417 19.1324C65.5272 18.9005 64.955 18.8276 64.3984 18.9229C63.842 19.0182 63.3267 19.2774 62.9191 19.6671C62.5115 20.0569 62.23 20.5595 62.111 21.1102C61.9919 21.6609 62.0406 22.2344 62.2508 22.7573C62.4611 23.2801 62.8234 23.7282 63.2909 24.044C63.7585 24.3597 64.3101 24.5288 64.8747 24.5293C65.2431 24.5557 65.613 24.5048 65.9604 24.3798C66.3079 24.2548 66.6253 24.0584 66.8919 23.8034C67.1586 23.5484 67.3687 23.2404 67.5087 22.8994C67.6486 22.5583 67.7154 22.1917 67.7045 21.8234Z" fill="black"></path><path d="M73.1049 22.0588C73.1049 20.8367 73.4683 19.6421 74.149 18.6261C74.8297 17.6101 75.7972 16.8185 76.929 16.3514C78.0608 15.8842 79.3061 15.7626 80.5072 16.0019C81.7084 16.2412 82.8113 16.8306 83.6766 17.6955C84.5419 18.5606 85.1305 19.6622 85.3679 20.8611C85.6055 22.06 85.4813 23.3022 85.0109 24.4306C84.5406 25.5591 83.7453 26.5228 82.7258 27.2001C81.7062 27.8774 80.5083 28.2376 79.2834 28.2353C78.4689 28.2432 77.6608 28.0887 76.9069 27.7809C76.153 27.4732 75.4682 27.0183 74.8928 26.4431C74.3173 25.8678 73.8627 25.1836 73.5557 24.4308C73.2488 23.678 73.0955 22.8715 73.1049 22.0588ZM81.9718 22.0588C81.9579 21.5311 81.7881 21.0191 81.4839 20.5871C81.1796 20.1552 80.7543 19.8223 80.2614 19.6305C79.7684 19.4386 79.2296 19.3961 78.7126 19.5085C78.1956 19.6207 77.7232 19.8828 77.3548 20.2618C76.9863 20.6407 76.7381 21.1198 76.6414 21.6388C76.5446 22.1579 76.6034 22.6939 76.8106 23.1796C77.0178 23.6655 77.3641 24.0795 77.8061 24.3699C78.248 24.6601 78.766 24.8139 79.2952 24.8118C79.6552 24.8188 80.0127 24.7516 80.3454 24.6145C80.6782 24.4774 80.979 24.2733 81.229 24.0149C81.4791 23.7566 81.6731 23.4494 81.7989 23.1129C81.9247 22.7763 81.9796 22.4175 81.96 22.0588H81.9718Z" fill="black"></path><path d="M87.1006 13.1176C87.1006 12.7034 87.2237 12.2985 87.4543 11.9541C87.6849 11.6097 88.0127 11.3413 88.3962 11.1828C88.7797 11.0243 89.2017 10.9829 89.6089 11.0637C90.0159 11.1445 90.3899 11.3439 90.6835 11.6368C90.977 11.9297 91.1769 12.3029 91.2579 12.709C91.3389 13.1152 91.2973 13.5363 91.1384 13.919C90.9796 14.3016 90.7105 14.6286 90.3654 14.8587C90.0203 15.0889 89.6146 15.2117 89.1994 15.2117C88.6446 15.2056 88.1144 14.983 87.7221 14.5916C87.3298 14.2001 87.1067 13.6711 87.1006 13.1176ZM87.4425 16.2352H90.9798V27.8823H87.4425V16.2352Z" fill="black"></path><path d="M106.12 22.0586C106.159 22.8332 106.045 23.608 105.784 24.3384C105.522 25.0688 105.118 25.7403 104.595 26.3143C104.073 26.8884 103.441 27.3536 102.738 27.6832C102.034 28.0129 101.272 28.2004 100.496 28.2351C99.8365 28.2789 99.1761 28.1736 98.5637 27.9271C97.9511 27.6805 97.4024 27.2992 96.9582 26.8116V32.5645H93.4209V16.2351H96.9582V17.3292C97.403 16.843 97.9522 16.4635 98.5647 16.219C99.1773 15.9744 99.8373 15.8713 100.496 15.9175C101.269 15.9522 102.028 16.1386 102.729 16.466C103.43 16.7935 104.06 17.2556 104.582 17.8258C105.105 18.396 105.509 19.0633 105.773 19.7897C106.037 20.5159 106.155 21.2869 106.12 22.0586ZM102.583 22.0586C102.569 21.5122 102.393 20.982 102.079 20.5346C101.764 20.0872 101.324 19.7423 100.814 19.5433C100.304 19.3443 99.746 19.3 99.2105 19.4159C98.6752 19.5318 98.1861 19.8029 97.8045 20.195C97.4228 20.5871 97.1656 21.0829 97.0653 21.6203C96.9648 22.1576 97.0255 22.7125 97.2399 23.2156C97.4543 23.7185 97.8126 24.1472 98.2701 24.4479C98.7276 24.7486 99.2638 24.9078 99.8116 24.9057C100.187 24.9216 100.561 24.8582 100.91 24.7196C101.259 24.581 101.575 24.3704 101.836 24.1016C102.098 23.8328 102.3 23.5117 102.428 23.1597C102.557 22.8076 102.609 22.4324 102.583 22.0586Z" fill="black"></path><path d="M116.885 24.3883C116.885 27.0707 114.527 28.2118 112.027 28.2118C111.007 28.3034 109.984 28.0877 109.088 27.5928C108.193 27.0978 107.467 26.3463 107.004 25.4354L110.046 23.7177C110.167 24.1375 110.428 24.5033 110.786 24.7538C111.145 25.0044 111.578 25.1245 112.015 25.0942C112.852 25.0942 113.277 24.8354 113.277 24.3648C113.277 23.0824 107.534 23.7648 107.534 19.7295C107.534 17.1883 109.68 15.9177 112.109 15.9177C113.033 15.8764 113.95 16.0855 114.764 16.5225C115.578 16.9596 116.258 17.6084 116.732 18.4001L113.689 20.0001C113.555 19.6965 113.335 19.4384 113.057 19.2568C112.779 19.0751 112.454 18.9778 112.121 18.9765C111.508 18.9765 111.143 19.2118 111.143 19.6236C111.143 20.9648 116.885 20.0824 116.885 24.3883Z" fill="black"></path><path d="M129.702 16.2354V27.8824H126.164V26.7883C125.762 27.2726 125.252 27.6558 124.675 27.9072C124.097 28.1586 123.469 28.271 122.839 28.2354C120.481 28.2354 118.465 26.553 118.465 23.4118V16.2354H122.002V22.8824C121.974 23.1603 122.007 23.4409 122.099 23.7049C122.191 23.9688 122.338 24.2097 122.532 24.4111C122.726 24.6124 122.962 24.7694 123.223 24.8711C123.483 24.9728 123.763 25.0168 124.042 25.0001C125.315 25.0001 126.212 24.2471 126.212 22.6471V16.2354H129.702Z" fill="black"></path><path d="M149.747 20.7295V27.8824H146.209V21.0354C146.209 19.8589 145.655 19.1295 144.535 19.1295C143.415 19.1295 142.707 19.9413 142.707 21.3177V27.8824H139.17V21.0354C139.17 19.8589 138.616 19.1295 137.496 19.1295C136.376 19.1295 135.668 19.9413 135.668 21.3177V27.8824H132.131V16.2354H135.668V17.306C136.035 16.833 136.512 16.4584 137.061 16.2161C137.608 15.9737 138.208 15.8711 138.805 15.9177C139.402 15.8866 139.999 16.0113 140.534 16.2794C141.07 16.5475 141.526 16.95 141.858 17.4471C142.248 16.9276 142.762 16.5149 143.354 16.2475C143.944 15.98 144.595 15.8666 145.243 15.9177C148.002 15.9177 149.747 17.8236 149.747 20.7295Z" fill="black"></path><path d="M152.718 16.1648C154.151 16.1648 155.312 15.0059 155.312 13.5765C155.312 12.1471 154.151 10.9883 152.718 10.9883C151.285 10.9883 150.124 12.1471 150.124 13.5765C150.124 15.0059 151.285 16.1648 152.718 16.1648Z" fill="black"></path></svg>