<svg xmlns="http://www.w3.org/2000/svg" width="127" height="32" viewBox="0 0 127 32" fill="none"><path d="M3.1377 29.6798H30.4977V2.31982H3.1377V29.6798ZM25.2316 13.3673H19.4502V7.58596H25.2316V13.3673ZM8.40276 7.58596H14.1873V18.6324H25.2316V24.4137H8.40276V7.58596ZM48.3142 2.31982C45.6085 2.31982 42.9636 3.12215 40.714 4.62533C38.4643 6.12851 36.7109 8.26503 35.6755 10.7647C34.6401 13.2645 34.3693 16.015 34.8971 18.6686C35.425 21.3223 36.7278 23.7598 38.641 25.673C40.5541 27.5863 42.9917 28.8891 45.6453 29.417C48.2991 29.9448 51.0496 29.674 53.5493 28.6385C56.0491 27.6031 58.1855 25.8497 59.6888 23.6C61.1919 21.3503 61.9942 18.7054 61.9942 15.9998C61.99 12.3729 60.5473 8.89587 57.9827 6.33129C55.4181 3.7667 51.9411 2.32406 48.3142 2.31982ZM48.3142 24.4137C46.6501 24.4137 45.0234 23.9202 43.6397 22.9957C42.2561 22.0712 41.1776 20.7572 40.5408 19.2197C39.904 17.6823 39.7374 15.9905 40.062 14.3583C40.3867 12.7262 41.1881 11.227 42.3647 10.0503C43.5414 8.87363 45.0406 8.07228 46.6728 7.74763C48.3049 7.42298 49.9966 7.58961 51.5341 8.22643C53.0715 8.86325 54.3856 9.94168 55.3101 11.3254C56.2347 12.7089 56.7281 14.3357 56.7281 15.9998C56.7247 18.2303 55.8371 20.3685 54.26 21.9456C52.6828 23.5228 50.5446 24.4103 48.3142 24.4137ZM110.948 2.31982C108.242 2.31962 105.597 3.12175 103.347 4.62481C101.097 6.12786 99.344 8.2643 98.3084 10.764C97.2729 13.2636 97.0017 16.0143 97.5295 18.668C98.0572 21.3217 99.36 23.7594 101.273 25.6727C103.186 27.586 105.624 28.889 108.278 29.4169C110.931 29.9448 113.682 29.674 116.182 28.6386C118.681 27.6032 120.818 25.8498 122.321 23.6001C123.825 21.3504 124.627 18.7055 124.627 15.9998C124.623 12.3732 123.18 8.89621 120.616 6.33166C118.052 3.76711 114.575 2.32435 110.948 2.31982ZM110.948 24.4137C109.284 24.4139 107.657 23.9206 106.273 22.9962C104.889 22.0718 103.811 20.7578 103.174 19.2204C102.537 17.683 102.37 15.9912 102.694 14.359C103.019 12.7269 103.82 11.2276 104.997 10.0507C106.174 8.87389 107.673 8.07244 109.305 7.74771C110.937 7.42297 112.629 7.58953 114.166 8.22633C115.704 8.86312 117.018 9.94154 117.943 11.3253C118.867 12.7089 119.361 14.3357 119.361 15.9998C119.357 18.2301 118.47 20.368 116.892 21.9452C115.316 23.5224 113.178 24.4101 110.948 24.4137ZM79.6305 2.31982C76.9248 2.31982 74.2799 3.12215 72.0303 4.62533C69.7806 6.12851 68.0272 8.26503 66.9918 10.7647C65.9564 13.2645 65.6856 16.015 66.2133 18.6686C66.7412 21.3223 68.0441 23.7598 69.9572 25.673C71.8704 27.5863 74.308 28.8891 76.9616 29.417C79.6153 29.9448 82.3659 29.674 84.8656 28.6385C87.3653 27.6031 89.5018 25.8497 91.005 23.6C92.5082 21.3503 93.3105 18.7054 93.3105 15.9998C93.3062 12.3729 91.8636 8.89587 89.299 6.33129C86.7344 3.7667 83.2574 2.32406 79.6305 2.31982ZM79.6305 24.4137C78.08 24.4144 76.5596 23.9868 75.2368 23.178C73.9141 22.3691 72.8405 21.2106 72.1347 19.8301C71.429 18.4496 71.1183 16.9009 71.2371 15.3551C71.356 13.8092 71.8995 12.3262 72.808 11.0698C73.7165 9.81343 74.9545 8.83247 76.3852 8.23525C77.816 7.63801 79.384 7.44774 80.9161 7.68541C82.4482 7.9231 83.8848 8.57948 85.0674 9.58214C86.25 10.5848 87.1326 11.8948 87.6177 13.3673H79.6305V18.6324H87.6177C87.0621 20.3127 85.9916 21.7755 84.5579 22.8132C83.1243 23.8509 81.4003 24.4108 79.6305 24.4137Z" fill="black"></path></svg>