<svg width="94" height="28" viewBox="0 0 94 28" fill="none" xmlns="http://www.w3.org/2000/svg">
<g clip-path="url(#clip0)">
<path d="M0 5.70056H2.73852V26.7704H12.3513V27.8323H0V5.70056Z" fill="white"/>
<path d="M19.002 5.7006H31.1856V6.76248H21.7405V16.2076H30.5149V17.2136H21.7405V26.8263H31.6327V27.8882H19.002V5.7006ZM26.491 4.02395H26.0998L20.9022 0H23.976L26.491 4.02395Z" fill="white"/>
<path d="M44.7666 28L35.7686 5.70056H38.6747L45.9961 24.0878L53.0939 5.70056H54.2117L45.549 28H44.7666Z" fill="white"/>
<path d="M65.11 17.3812H62.2039V27.8323H59.4653V5.70056H65.613C70.2518 5.70056 73.1021 7.76843 73.1021 11.3453C73.1021 14.1397 71.146 16.487 67.8486 17.1576L75.3376 27.8323H72.0961L65.11 17.3812ZM62.2039 6.76244V16.4311H66.5072C68.2957 16.4311 70.14 15.3133 70.14 11.5129C70.14 7.82431 68.128 6.76244 65.5572 6.76244H62.2039Z" fill="white"/>
<path d="M81.3174 5.70056H93.501V6.76244H84.0559V16.2075H92.8304V17.2135H84.0559V26.8263H93.9481V27.8882H81.3174V5.70056Z" fill="white"/>
</g>
<defs>
<clipPath id="clip0">
<rect width="93.9481" height="28" fill="white"/>
</clipPath>
</defs>
</svg>
