<svg width="94" height="28" viewBox="0 0 94 28" fill="none" xmlns="http://www.w3.org/2000/svg">
<path d="M0 5.70068H2.73852V26.7705H12.3513V27.8324H0V5.70068Z" fill="black"/>
<path d="M19.0039 5.7006H31.1875V6.76248H21.7424V16.2076H30.5169V17.2136H21.7424V26.8263H31.6346V27.8882H19.0039V5.7006ZM26.4929 4.02395H26.1017L20.9041 0H23.978L26.4929 4.02395Z" fill="black"/>
<path d="M44.7675 28.0001L35.7695 5.70068H38.6757L45.9971 24.0879L53.0949 5.70068H54.2126L45.55 28.0001H44.7675Z" fill="black"/>
<path d="M65.1096 17.3813H62.2034V27.8324H59.4648V5.70068H65.6126C70.2513 5.70068 73.1016 7.76855 73.1016 11.3454C73.1016 14.1398 71.1455 16.4871 67.8481 17.1578L75.3371 27.8324H72.0956L65.1096 17.3813ZM62.2034 6.76256V16.4312H66.5068C68.2952 16.4312 70.1395 15.3135 70.1395 11.5131C70.1395 7.82444 68.1275 6.76256 65.5567 6.76256H62.2034Z" fill="black"/>
<path d="M81.3164 5.70068H93.5V6.76256H84.0549V16.2077H92.8294V17.2137H84.0549V26.8264H93.9472V27.8883H81.3164V5.70068Z" fill="black"/>
</svg>
